<?xml version="1.0" encoding="utf-8"?>
<!-- Generator: Adobe Illustrator 19.0.0, SVG Export Plug-In . SVG Version: 6.00 Build 0)  -->
<svg version="1.1" id="Layer_1" xmlns="http://www.w3.org/2000/svg" xmlns:xlink="http://www.w3.org/1999/xlink" x="0px" y="0px"
	 width="100px" height="100px" viewBox="0 0 100 100" style="enable-background:new 0 0 100 100;" xml:space="preserve">
<style type="text/css">
	.st0{fill:#1B1A1B;}
</style>
<g id="XMLID_2_">
	<path id="XMLID_20_" class="st0" d="M79.8,43.7v18c0,0.8-0.4,1.5-1.1,1.8c0,0,0,0,0,0c-0.2,0.1-0.5,0.2-0.8,0.2h-6.1
		c-0.6-0.1-1.1-0.9-1.4-1.4c-0.2-0.3-0.3-0.6-0.3-1l0.1-16c0-1.3,1.1-1.9,1.7-2.2c0.2-0.1,0.5-0.2,0.8-0.2h0.1c1.1,0,2-0.9,2-2.1
		C73.6,14.8,50,15.3,50,15.3s-23.6-0.4-24.8,25.6c-0.1,1.1,0.8,2.1,2,2.1h0.1c0.3,0,0.5,0,0.8,0.2c0.6,0.3,1.7,0.9,1.7,2.2l0.1,16
		c0,0.4-0.1,0.7-0.3,1c-0.3,0.5-0.9,1.4-1.4,1.4h-6.1c-0.3,0-0.5-0.1-0.8-0.2c0,0,0,0,0,0c-0.7-0.3-1.1-1-1.1-1.8v-18
		c0-0.1,0-0.2,0-0.2c-0.2-2-3-30.6,29.7-33.3c0.1,0,0.2,0,0.4,0c32.7,2.8,29.9,31.3,29.7,33.3C79.8,43.5,79.8,43.6,79.8,43.7z"/>
	<rect id="XMLID_1_" x="37.2" y="43.4" class="st0" width="4.9" height="16.9"/>
	<rect id="XMLID_5_" x="47.5" y="51.3" class="st0" width="4.9" height="15"/>
	<rect id="XMLID_6_" x="57.6" y="43.4" class="st0" width="4.9" height="10.5"/>
	<rect id="XMLID_9_" x="57.6" y="73.4" class="st0" width="4.9" height="7.8"/>
	<rect id="XMLID_10_" x="47.5" y="70.4" class="st0" width="4.9" height="7.8"/>
	<rect id="XMLID_11_" x="47.5" y="82.1" class="st0" width="4.9" height="7.8"/>
	<rect id="XMLID_7_" x="57.6" y="58" class="st0" width="4.9" height="10.5"/>
	<rect id="XMLID_8_" x="37.2" y="64.6" class="st0" width="4.9" height="13"/>

</svg>
