<?xml version="1.0" encoding="utf-8"?>
<!-- Generator: Adobe Illustrator 19.0.0, SVG Export Plug-In . SVG Version: 6.00 Build 0)  -->
<svg version="1.1" id="Layer_1" xmlns="http://www.w3.org/2000/svg" xmlns:xlink="http://www.w3.org/1999/xlink" x="0px" y="0px"
	 width="100px" height="100px" viewBox="0 0 100 100" style="enable-background:new 0 0 100 100;" xml:space="preserve">
<style type="text/css">
	.st0{fill:none;stroke:#1B1A1B;stroke-width:10;stroke-miterlimit:10;}
</style>
<path id="XMLID_6_" class="st0" d="M11.2,45.9"/>
<path id="XMLID_2_" d="M71.6,32l-3.8-3.8H28.4v43.7h39.8l3.4-3.4V53.6l-3.5-3.2l3.5-3.5V32z M62.2,44.8l-1.3,1.5h-8.4l-2.6-8.1
	l-2.9,8.1h-9.3l6.8,5.7l-2.4,8.7l7.8-4.7l7.1,4.7L54.9,54h5.4l1.8,1.8l0.1,8.7H37.7V35.8h24.6V44.8z"/>

	<path id="XMLID_44_" d="M50,14.3c19.7,0,35.8,16,35.8,35.8S69.7,85.8,50,85.8S14.3,69.7,14.3,50S30.3,14.3,50,14.3 M50,10.3
		C28,10.3,10.3,28,10.3,50S28,89.8,50,89.8S89.8,72,89.8,50S72,10.3,50,10.3L50,10.3z"/>

</svg>
