<?xml version="1.0" encoding="utf-8"?>
<!-- Generator: Adobe Illustrator 19.0.0, SVG Export Plug-In . SVG Version: 6.00 Build 0)  -->
<svg version="1.1" id="Layer_1" xmlns="http://www.w3.org/2000/svg" xmlns:xlink="http://www.w3.org/1999/xlink" x="0px" y="0px"
	 width="100px" height="100px" viewBox="0 0 100 100" style="enable-background:new 0 0 100 100;" xml:space="preserve">
<g id="XMLID_28_">
	<path id="XMLID_29_" d="M83.5,75.8c0,4.7-3.9,8.6-8.6,8.6H25.1c-4.7,0-8.6-3.9-8.6-8.6V25.9c0-4.7,3.9-8.6,8.6-8.6h49.9
		c4.7,0,8.6,3.9,8.6,8.6V75.8z M75.9,45.7H70c0.6,1.8,0.9,3.8,0.9,5.7c0,11.2-9.3,20.2-20.9,20.2c-11.5,0-20.8-9-20.8-20.2
		c0-2,0.3-3.9,0.9-5.7h-6.2V74c0,1.5,1.2,2.7,2.7,2.7h46.7c1.5,0,2.7-1.2,2.7-2.7V45.7z M50,37.7c-7.4,0-13.5,5.9-13.5,13.1
		c0,7.2,6,13.1,13.5,13.1c7.5,0,13.5-5.9,13.5-13.1C63.5,43.5,57.5,37.7,50,37.7z M75.9,27.8c0-1.7-1.4-3-3-3h-7.6c-1.7,0-3,1.4-3,3
		V35c0,1.7,1.4,3,3,3h7.6c1.7,0,3-1.4,3-3V27.8z"/>
</g>
</svg>
