<svg version="1.1" xmlns="http://www.w3.org/2000/svg" x="0px" y="0px"
	 width="100px" height="100px" viewBox="0 0 100 100" style="enable-background:new 0 0 100 100;" xml:space="preserve">
	<path id="XMLID_3_" d="M30.8,78.8c0,1.7-1.5,3.2-3.2,3.2H13.2c-1.7,0-3.2-1.5-3.2-3.2v-32c0-1.7,1.5-3.2,3.2-3.2h14.4
		c1.7,0,3.2,1.5,3.2,3.2V78.8z M87.2,54.2c0.6,1.6,0.8,3.1,0.8,3.8c0.1,2.5-0.6,4.8-2.2,6.8c0.6,1.9,0.6,3.9,0,5.8
		c-0.5,1.9-1.5,3.5-2.7,4.7c0.3,3.8-0.6,6.8-2.5,9c-2.2,2.6-5.4,3.8-9.8,3.9c-0.2,0-0.9,0-1.8,0h-3.8h-0.8c-7.2,0-13.9-2.4-19.3-4.2
		c-3.2-1.1-6.2-2.2-7.9-2.2c-1.7-0.1-3.2-1.5-3.2-3.2V46.7c0-1.6,1.4-3.1,3.1-3.2c1.8-0.1,6.6-6.1,8.8-9c1.8-2.3,3.5-4.5,5.1-6
		c1.9-1.9,2.5-5,3.1-7.9c0.6-3,1.2-6.1,3.3-8.1c0.6-0.6,1.4-1,2.2-1c11.2,0,11.2,9,11.2,12.8c0,4.1-1.5,7-2.8,9.6
		c-0.6,1.1-1,1.6-1.5,3.2h13.8c5.2,0,9.6,4.4,9.6,9.6C90,49.4,89,52.3,87.2,54.2z"/>
</svg>
