<svg version="1.1"
	 xmlns="http://www.w3.org/2000/svg"
	 viewBox="0 0 100 100">

	<path id="XMLID_29_" d="M81.6,41.9c-6.8,4.7-13.6,9.4-20.4,14.2c-2.8,2-7.6,6-11.2,6h0h0c-3.5,0-8.3-4-11.2-6
		c-6.8-4.7-13.6-9.5-20.3-14.2c-3.1-2.1-7.5-7-7.5-11c0-4.3,2.3-7.9,7-7.9h64.1c3.8,0,7,3.1,7,7C89,34.8,85.4,39.2,81.6,41.9z
		 M89,77.4c0,3.8-3.1,7-7,7H17.9c-3.8,0-7-3.1-7-7V42.8c1.3,1.4,2.8,2.7,4.4,3.8c7.2,4.9,14.6,9.8,21.7,15c3.7,2.7,8.2,6,12.9,6h0h0
		c4.7,0,9.3-3.3,12.9-6c7.1-5.1,14.4-10.1,21.7-15c1.6-1.1,3-2.4,4.4-3.8V77.4z"/>
</svg>
