<?xml version="1.0" encoding="utf-8"?>
<!-- Generator: Adobe Illustrator 19.0.0, SVG Export Plug-In . SVG Version: 6.00 Build 0)  -->
<svg version="1.1" id="Layer_1" xmlns="http://www.w3.org/2000/svg" xmlns:xlink="http://www.w3.org/1999/xlink" x="0px" y="0px"
	 width="100px" height="100px" viewBox="0 0 100 100" style="enable-background:new 0 0 100 100;" xml:space="preserve">
<g id="XMLID_28_">
	<path id="XMLID_29_" d="M11.9,58.9l-0.7,4.4c0,0.2-0.1,0.3-0.3,0.3s-0.3-0.1-0.3-0.3L10,58.9l0.6-4.4c0-0.2,0.1-0.3,0.3-0.3
		s0.3,0.1,0.3,0.3L11.9,58.9z M15.1,58.9l-0.9,7.1c0,0.2-0.2,0.3-0.3,0.3s-0.3-0.1-0.3-0.3l-0.8-7c0.8-7.2,0.8-7.2,0.8-7.2
		c0-0.2,0.1-0.3,0.3-0.3s0.3,0.1,0.3,0.3L15.1,58.9z M18.2,58.9l-0.9,8.2c0,0.2-0.2,0.4-0.4,0.4s-0.4-0.2-0.4-0.4l-0.7-8.2l0.7-8.5
		c0-0.2,0.2-0.4,0.4-0.4s0.4,0.2,0.4,0.4L18.2,58.9z M21.4,58.9l-0.8,8.5c0,0.3-0.2,0.5-0.5,0.5s-0.5-0.2-0.5-0.5L19,58.9l0.7-8.8
		c0-0.3,0.2-0.5,0.5-0.5s0.5,0.2,0.5,0.5L21.4,58.9z M24.6,58.9l-0.7,8.6c0,0.3-0.3,0.6-0.6,0.6c-0.3,0-0.5-0.2-0.5-0.6l-0.7-8.6
		l0.7-8.1c0-0.3,0.2-0.5,0.5-0.5c0.3,0,0.5,0.2,0.6,0.5L24.6,58.9z M27.9,58.9l-0.7,8.6c0,0.3-0.3,0.6-0.6,0.6
		c-0.3,0-0.6-0.3-0.6-0.6l-0.6-8.6c0.6-13.2,0.6-13.2,0.6-13.2c0-0.3,0.3-0.6,0.6-0.6c0.3,0,0.6,0.3,0.6,0.6L27.9,58.9z M31.1,58.9
		l-0.7,8.5c0,0.4-0.3,0.7-0.7,0.7c-0.4,0-0.7-0.3-0.7-0.7l-0.6-8.5c0.6-16.3,0.6-16.3,0.6-16.3c0-0.4,0.3-0.7,0.7-0.7
		c0.3,0,0.7,0.3,0.7,0.7L31.1,58.9z M34.5,58.9l-0.6,8.4c0,0.4-0.3,0.7-0.8,0.7c-0.4,0-0.7-0.3-0.7-0.7l-0.6-8.4l0.6-17.6
		c0-0.4,0.3-0.8,0.7-0.8c0.4,0,0.7,0.3,0.8,0.8L34.5,58.9z M37.8,58.9l-0.6-18.2c0-0.5-0.4-0.8-0.8-0.8c-0.4,0-0.8,0.4-0.8,0.8
		l-0.5,18.2l0.5,8.4c0,0.5,0.4,0.8,0.8,0.8c0.5,0,0.8-0.3,0.8-0.8L37.8,58.9z M41.1,58.9l-0.5,8.3c0,0.5-0.4,0.9-0.9,0.9
		c-0.5,0-0.8-0.4-0.9-0.9l-0.5-8.3l0.5-17.7c0-0.5,0.4-0.9,0.9-0.9c0.5,0,0.9,0.4,0.9,0.9L41.1,58.9z M44.5,58.9L44,67.1
		c0,0.5-0.4,0.9-0.9,0.9s-0.9-0.4-1-0.9l-0.4-8.2l0.4-17.1c0-0.6,0.5-1,1-1s0.9,0.4,0.9,1L44.5,58.9z M47.9,58.9l-0.4-20.4
		c0-0.3-0.2-0.7-0.5-0.8c-0.2-0.1-0.3-0.2-0.6-0.2s-0.4,0.1-0.6,0.2c-0.3,0.2-0.5,0.5-0.5,0.8l0,0.2l-0.3,20.1c0,0,0,0,0.4,8.2
		c0,0,0,0,0,0c0,0.2,0.1,0.4,0.2,0.6c0.2,0.2,0.5,0.4,0.8,0.4c0.3,0,0.5-0.1,0.7-0.3c0.2-0.2,0.3-0.4,0.3-0.7l0-0.8L47.9,58.9z
		 M50.9,66.9c0,0.6-0.5,1.1-1.1,1.1s-1.1-0.5-1.1-1.1l-0.2-4l-0.2-4.1l0.4-22.1v-0.1c0-0.3,0.2-0.6,0.4-0.8c0.2-0.1,0.4-0.2,0.7-0.2
		c0.2,0,0.4,0.1,0.5,0.2c0.3,0.2,0.5,0.5,0.6,0.9l0.5,22.2L50.9,66.9z M80.2,68c-27.3,0-27.3,0-27.3,0c-0.6-0.1-1.1-0.5-1.1-1.1
		V35.7c0-0.6,0.2-0.9,1-1.1c1.9-0.8,4.1-1.2,6.3-1.2c9.1,0,16.5,7,17.3,15.8c1.2-0.5,2.5-0.8,3.8-0.8c5.4,0,9.8,4.4,9.8,9.9
		C90,63.7,85.6,68,80.2,68z"/>
</g>
</svg>
