<svg version="1.1"
	 xmlns="http://www.w3.org/2000/svg"
	 viewBox="0 0 100 100">
	<path id="XMLID_29_" d="M77.3,36.9c0,0.6,0,1.2,0,1.8c0,18.6-14.2,40-40,40c-8,0-15.4-2.3-21.6-6.3c1.1,0.1,2.2,0.2,3.4,0.2
		c6.6,0,12.6-2.2,17.5-6c-6.2-0.1-11.4-4.2-13.2-9.8c0.9,0.1,1.7,0.2,2.7,0.2c1.3,0,2.5-0.2,3.7-0.5c-6.4-1.3-11.3-7-11.3-13.8
		c0,0,0-0.1,0-0.2c1.9,1,4.1,1.7,6.4,1.8c-3.8-2.5-6.3-6.8-6.3-11.7c0-2.6,0.7-5,1.9-7.1c6.9,8.5,17.3,14.1,29,14.7
		c-0.2-1-0.3-2.1-0.3-3.2c0-7.8,6.3-14.1,14.1-14.1c4.1,0,7.7,1.7,10.3,4.4c3.2-0.6,6.2-1.8,8.9-3.4c-1,3.3-3.3,6-6.2,7.8
		c2.8-0.3,5.6-1.1,8.1-2.2C82.4,32.4,80,34.9,77.3,36.9z"/>
</svg>
