<?xml version="1.0" encoding="utf-8"?>
<!-- Generator: Adobe Illustrator 19.0.0, SVG Export Plug-In . SVG Version: 6.00 Build 0)  -->
<svg version="1.1" id="Layer_1" xmlns="http://www.w3.org/2000/svg" xmlns:xlink="http://www.w3.org/1999/xlink" x="0px" y="0px"
	 width="100px" height="100px" viewBox="0 0 100 100" style="enable-background:new 0 0 100 100;" xml:space="preserve">
<path id="XMLID_3_" d="M81.6,82.3c-0.8,3.5-3.7,6.1-7.1,6.4c-8.1,0.9-16.3,0.9-24.5,0.9s-16.4,0-24.5-0.9c-3.4-0.4-6.3-2.9-7.1-6.4
	c-1.1-5-1.1-10.4-1.1-15.5c0-5.1,0-10.5,1.1-15.5c0.8-3.5,3.7-6.1,7.1-6.5C33.6,44,41.8,44,50,44s16.4,0,24.5,0.9
	c3.4,0.4,6.3,3,7.1,6.5c1.2,4.9,1.2,10.3,1.2,15.5C82.7,71.9,82.7,77.3,81.6,82.3z M36,55.8v-4.2H22.2v4.2h4.6v25.1h4.4V55.8H36z
	 M43.2,10.4L37.8,28v12h-4.4V28c-0.4-2.2-1.3-5.3-2.7-9.4c-1-2.7-1.9-5.5-2.9-8.3h4.7L35.6,22l3-11.6H43.2z M47.9,80.9V59.1h-3.9
	v16.7c-0.9,1.2-1.7,1.9-2.5,1.9c-0.5,0-0.8-0.3-0.9-0.9c0-0.1,0-0.6,0-1.5V59.1h-3.9v17.3c0,1.5,0.1,2.6,0.4,3.2
	c0.4,1.1,1.3,1.6,2.6,1.6c1.4,0,2.9-0.9,4.5-2.7v2.4H47.9z M55,32.9c0,2.3-0.4,4.1-1.2,5.2c-1.1,1.5-2.7,2.3-4.7,2.3
	c-2,0-3.5-0.8-4.6-2.3c-0.8-1.1-1.2-2.9-1.2-5.2v-7.7c0-2.3,0.4-4.1,1.2-5.2c1.1-1.5,2.6-2.3,4.6-2.3c2,0,3.6,0.8,4.7,2.3
	c0.8,1.1,1.2,2.8,1.2,5.2V32.9z M51,24.3c0-2-0.6-3-1.9-3c-1.3,0-1.9,1-1.9,3v9.3c0,2,0.6,3.1,1.9,3.1c1.3,0,1.9-1.1,1.9-3.1V24.3z
	 M62.9,65.7c0-2-0.1-3.5-0.4-4.4c-0.5-1.6-1.6-2.5-3.1-2.5c-1.5,0-2.8,0.8-4.1,2.4v-9.6h-3.9v29.3h3.9v-2.1c1.3,1.6,2.7,2.4,4.1,2.4
	c1.5,0,2.7-0.8,3.1-2.4c0.3-0.9,0.4-2.4,0.4-4.4V65.7z M59,74.7c0,2-0.6,3-1.7,3c-0.7,0-1.3-0.3-2-1V63.4c0.7-0.7,1.3-1,2-1
	c1.1,0,1.7,1,1.7,3V74.7z M69.8,40h-4v-2.4c-1.6,1.9-3.1,2.7-4.6,2.7c-1.3,0-2.2-0.5-2.6-1.6c-0.2-0.7-0.4-1.7-0.4-3.3V18h4v16.2
	c0,0.9,0,1.5,0,1.5c0.1,0.6,0.4,1,0.9,1c0.8,0,1.6-0.6,2.5-1.9V18h4V40z M77.8,73.4h-4c0,1.6,0,2.5-0.1,2.7
	c-0.2,1.1-0.8,1.6-1.8,1.6c-1.4,0-2-1-2-3.1v-3.8h7.9v-4.6c0-2.3-0.4-4-1.2-5.1c-1.1-1.5-2.7-2.3-4.7-2.3c-2,0-3.6,0.8-4.7,2.3
	c-0.8,1.1-1.2,2.8-1.2,5.1v7.6c0,2.3,0.4,4.1,1.3,5.1c1.1,1.5,2.7,2.3,4.8,2.3c2.1,0,3.7-0.8,4.8-2.3c0.5-0.7,0.8-1.5,0.9-2.4
	c0.1-0.4,0.1-1.3,0.1-2.6V73.4z M73.9,67.5h-4v-2c0-2,0.7-3,2-3c1.3,0,2,1,2,3V67.5z"/>
</svg>
