<?xml version="1.0" standalone="no"?>
<!DOCTYPE svg PUBLIC "-//W3C//DTD SVG 20010904//EN"
 "http://www.w3.org/TR/2001/REC-SVG-20010904/DTD/svg10.dtd">
<svg version="1.0" xmlns="http://www.w3.org/2000/svg"
 width="996.000000pt" height="996.000000pt" viewBox="0 0 996.000000 996.000000"
 preserveAspectRatio="xMidYMid meet">
<metadata>
Created by potrace 1.11, written by Peter Selinger 2001-2013
</metadata>
<g transform="translate(0.000000,996.000000) scale(0.100000,-0.100000)"
fill="#000000" stroke="none">
<path d="M488 9954 c-2 -2 -34 -5 -71 -6 -52 -2 -67 -6 -68 -18 -2 -34 2 -208
6 -255 3 -27 7 -77 10 -110 22 -282 134 -654 253 -840 205 -320 480 -496 923
-591 137 -29 241 -46 357 -59 26 -3 61 -8 77 -10 17 -2 64 -7 105 -11 41 -3
91 -8 110 -10 190 -19 828 -26 1050 -10 69 4 157 9 195 11 39 2 111 6 160 10
98 8 483 10 490 3 2 -2 -12 -13 -33 -23 -199 -105 -609 -390 -817 -568 -128
-110 -359 -351 -440 -458 -128 -171 -218 -332 -273 -489 -50 -144 -124 -449
-172 -710 -6 -30 -12 -64 -14 -75 -2 -11 -7 -40 -11 -65 -4 -25 -9 -52 -10
-61 -2 -9 -6 -40 -10 -70 -3 -30 -8 -61 -10 -69 -2 -8 -6 -44 -10 -80 -3 -36
-7 -76 -9 -90 -4 -23 -13 -120 -21 -225 -2 -22 -6 -132 -10 -245 -4 -113 -8
-206 -9 -206 0 -1 -40 13 -87 32 -281 109 -554 127 -878 60 -214 -45 -488
-210 -676 -408 -153 -160 -272 -323 -375 -513 l-28 -50 99 -77 99 -78 56 53
c210 195 444 296 659 283 238 -14 419 -98 589 -272 179 -183 309 -445 341
-686 13 -95 7 -344 -10 -429 -3 -13 -8 -37 -10 -54 -30 -170 -104 -358 -209
-525 -91 -146 -367 -446 -606 -660 -52 -47 -97 -87 -100 -90 -3 -3 -41 -35
-85 -70 -165 -134 -311 -237 -578 -406 l-47 -30 87 -117 c49 -64 92 -116 96
-116 12 -1 80 42 400 255 288 191 533 364 787 554 153 115 334 259 466 370 23
19 52 44 65 54 24 19 159 136 169 146 3 3 34 30 70 60 178 152 461 450 582
615 116 158 241 410 294 595 38 135 65 239 70 270 3 19 7 37 9 40 3 6 34 171
40 215 2 11 5 36 8 55 3 19 8 62 12 95 4 33 8 70 10 81 2 12 6 59 10 105 3 46
8 111 12 144 3 33 7 517 9 1075 3 930 6 1163 19 1290 30 310 106 591 220 817
78 153 155 262 270 378 154 156 283 241 510 337 70 29 237 80 243 74 2 -2 -17
-41 -41 -87 -148 -284 -286 -736 -333 -1089 -3 -19 -7 -45 -9 -58 -2 -13 -7
-53 -11 -90 -3 -37 -8 -74 -9 -83 -2 -8 -6 -55 -10 -105 -4 -49 -9 -105 -12
-124 -3 -19 -7 -534 -8 -1145 -3 -1026 -8 -1411 -19 -1475 -3 -14 -8 -52 -11
-85 -6 -58 -19 -152 -30 -205 -28 -141 -42 -202 -72 -304 -102 -351 -262 -645
-518 -946 -37 -43 -296 -302 -350 -350 -22 -20 -65 -55 -95 -80 -30 -25 -57
-47 -60 -50 -3 -4 -66 -51 -140 -107 -183 -136 -402 -279 -600 -392 -144 -82
-707 -415 -918 -542 -39 -24 -80 -48 -90 -54 -10 -5 -161 -95 -335 -200 -175
-104 -339 -202 -365 -217 -25 -14 -48 -30 -49 -35 -3 -9 135 -222 163 -252 10
-12 47 4 231 95 434 217 736 341 1153 471 145 45 509 143 585 157 11 2 70 14
130 26 127 25 140 27 180 34 17 3 41 8 55 10 14 3 41 7 60 10 19 3 82 12 140
20 58 8 132 18 165 21 33 4 74 8 90 10 17 2 68 7 115 10 47 4 101 9 120 10
259 24 913 24 1180 1 25 -3 90 -7 145 -11 55 -4 114 -8 130 -10 17 -2 59 -6
95 -9 36 -4 81 -8 100 -10 19 -3 64 -8 100 -11 36 -4 72 -8 80 -10 8 -2 44 -6
80 -10 36 -3 72 -8 80 -10 8 -2 39 -7 69 -10 30 -4 63 -9 75 -11 11 -2 38 -6
61 -9 22 -3 76 -12 120 -20 44 -8 98 -16 119 -20 57 -8 77 -12 366 -71 96 -20
194 -40 217 -45 56 -11 192 -43 338 -80 66 -17 127 -32 135 -34 8 -2 75 -20
147 -40 l132 -37 43 29 c70 47 206 142 308 213 97 68 137 96 440 304 96 66
177 124 178 128 2 4 8 8 12 8 8 0 238 157 275 187 6 4 39 28 75 52 78 53 666
458 697 480 l22 16 -4 580 c-6 758 -12 1106 -30 1580 -8 219 -21 473 -31 595
-1 25 -6 92 -9 149 -4 57 -8 111 -10 120 -2 9 -6 64 -10 121 -4 57 -8 112 -10
121 -2 9 -6 52 -10 95 -4 43 -9 86 -10 94 -2 8 -6 49 -10 90 -4 41 -8 82 -10
90 -2 8 -6 44 -10 80 -4 36 -9 72 -10 81 -2 9 -6 40 -10 70 -3 30 -8 65 -10
79 -3 14 -9 57 -15 95 -5 39 -11 79 -14 90 -2 11 -6 41 -10 66 -8 57 -13 83
-33 189 -9 47 -17 94 -18 105 -5 34 -74 341 -101 448 -34 136 -58 218 -107
367 -23 69 -42 127 -42 130 -1 3 -5 14 -10 25 -4 11 -26 67 -48 125 -90 237
-259 553 -410 765 -39 55 -73 102 -77 105 -3 3 -29 34 -59 70 -204 249 -471
467 -756 616 -235 123 -578 238 -865 290 -243 44 -260 47 -355 58 -22 3 -58 7
-80 10 -22 3 -69 8 -105 11 -36 3 -81 8 -100 10 -43 6 -126 12 -295 22 -246
15 -1216 8 -1675 -12 -122 -5 -343 -14 -490 -20 -63 -3 -162 -7 -220 -10 -58
-2 -195 -7 -305 -10 -110 -3 -249 -8 -310 -10 -513 -18 -1417 -26 -1545 -12
-304 32 -543 115 -716 248 -108 83 -220 224 -269 337 -11 23 -21 42 -24 43 -3
0 -14 2 -23 4 -9 2 -18 1 -20 -1z m4952 -1817 c0 -5 8 -6 18 -3 18 6 19 -88
19 -2989 l0 -2995 -71 -1 c-134 -1 -398 -14 -496 -24 -19 -2 -71 -6 -115 -10
-115 -9 -234 -23 -345 -40 -14 -2 -45 -7 -70 -10 -87 -12 -314 -56 -417 -80
-58 -14 -107 -25 -109 -25 -3 0 12 15 33 33 236 203 448 503 586 827 124 293
226 715 253 1050 2 36 7 88 10 115 6 49 10 477 18 1770 2 352 6 667 9 700 4
33 9 94 12 135 6 73 10 111 20 188 3 20 7 57 10 82 3 25 10 70 15 100 5 30 12
71 15 90 21 124 76 336 127 485 89 259 272 595 324 595 13 0 25 3 28 8 6 10
126 9 126 -1z m530 -23 c147 -16 211 -25 370 -54 375 -68 698 -183 939 -333
196 -122 389 -312 500 -493 44 -71 125 -230 151 -294 12 -30 26 -64 31 -75 59
-130 153 -498 194 -755 3 -19 7 -46 10 -60 3 -14 7 -45 10 -70 3 -25 7 -61 10
-80 2 -19 7 -62 10 -95 4 -33 8 -76 10 -96 5 -44 2 -46 -120 -121 -265 -161
-563 -281 -780 -313 -22 -3 -56 -8 -75 -11 -19 -3 -51 -7 -70 -9 -45 -5 -289
-6 -315 -1 -11 2 -42 7 -70 10 -87 12 -108 16 -190 36 -206 48 -479 169 -680
301 -60 40 -112 73 -114 75 -2 2 -4 2229 -2 2413 l1 43 68 -6 c37 -4 87 -9
112 -12z m-156 -2843 c16 -26 302 -176 436 -229 98 -39 261 -91 308 -98 20 -3
40 -8 43 -9 3 -2 28 -7 55 -11 27 -3 52 -8 56 -10 11 -7 178 -18 263 -18 84 1
235 11 257 19 7 2 30 6 50 9 143 21 376 95 613 194 22 9 107 50 189 90 82 40
150 71 151 70 2 -2 6 -32 9 -68 4 -36 9 -81 11 -100 2 -19 7 -69 10 -110 3
-41 8 -95 10 -120 14 -157 35 -433 40 -540 2 -36 6 -108 9 -160 7 -111 15
-269 21 -428 l4 -114 -42 25 c-252 147 -536 259 -782 311 -109 23 -126 26
-185 32 -30 4 -73 9 -95 13 -44 8 -377 7 -410 -2 -11 -2 -40 -8 -65 -12 -213
-33 -524 -147 -829 -302 -80 -40 -147 -71 -149 -68 -3 3 -6 1426 -3 1603 1 39
12 54 25 33z m1471 -1571 c96 -15 100 -16 180 -34 261 -62 527 -183 802 -368
39 -26 74 -52 77 -57 22 -36 64 -1537 43 -1557 -3 -3 -38 4 -79 16 -40 13 -95
28 -123 35 -27 8 -86 23 -130 35 -44 12 -87 23 -95 25 -8 2 -73 18 -145 35
-124 29 -326 74 -383 85 -15 3 -38 7 -52 10 -195 38 -536 100 -615 111 -74 10
-102 14 -125 18 -21 4 -166 25 -285 42 -136 18 -397 51 -490 60 -33 3 -64 10
-69 14 -10 10 -12 1082 -2 1098 21 34 352 213 526 285 88 36 286 102 336 112
16 3 81 16 144 29 96 19 140 23 265 20 83 -1 182 -8 220 -14z"/>
</g>
</svg>
